<?xml version="1.0" standalone="no"?>
<!DOCTYPE svg PUBLIC "-//W3C//DTD SVG 20010904//EN"
 "http://www.w3.org/TR/2001/REC-SVG-20010904/DTD/svg10.dtd">
<svg version="1.0" xmlns="http://www.w3.org/2000/svg"
 width="392.000000pt" height="134.000000pt" viewBox="0 0 392.000000 134.000000"
 preserveAspectRatio="xMidYMid meet">

<g transform="translate(0.000000,134.000000) scale(0.100000,-0.100000)"
fill="#000000" stroke="none">
<path d="M509 965 c-66 -21 -125 -64 -165 -121 -41 -58 -34 -64 50 -40 30 9
73 16 95 16 37 0 41 3 41 24 0 28 42 66 72 66 11 0 32 -13 48 -29 17 -17 31
-24 33 -17 3 6 8 3 12 -7 5 -12 1 -22 -11 -32 -18 -13 -18 -14 9 -24 34 -13
197 -15 197 -2 0 5 -20 34 -45 64 -80 98 -218 140 -336 102z"/>
<path d="M590 834 c0 -9 5 -14 12 -12 18 6 21 28 4 28 -9 0 -16 -7 -16 -16z"/>
<path d="M481 680 c-19 -11 -9 -45 14 -45 13 0 21 8 23 21 3 23 -17 37 -37 24z"/>
<path d="M684 669 c-3 -6 0 -18 9 -26 18 -18 37 -9 37 18 0 21 -34 27 -46 8z"/>
<path d="M366 620 c7 -62 45 -122 100 -159 56 -37 97 -46 172 -38 101 11 191
99 198 193 2 27 1 40 -2 29 -3 -11 -10 -37 -15 -58 -14 -54 -80 -122 -136
-141 -67 -23 -121 -20 -181 10 -63 31 -97 74 -123 151 l-19 58 6 -45z"/>
</g>
</svg>
